<?xml version="1.0" encoding="UTF-8"?>
<svg id="Layer_1" data-name="Layer 1" xmlns="http://www.w3.org/2000/svg" viewBox="0 0 194.6 267.96">
  <defs>
    <style>
      .cls-1 {
        fill: #fff;
      }
      @media (max-width: 375px) and (max-height: 812px) {
        .cls-1 {
          fill: #F7F7F7; /* Red color */
        }
      }
    </style>
  </defs>
  <path class="cls-1" d="m155.42,40.52c-3.34-2.34-6.67-4.51-9.97-6.5l-35.89,20.72c-3.5,8.55-6.08,16.79-7.68,24.2-6.31-1.96-13.02-3.01-19.96-3.01-7.31,0-14.34,1.18-20.92,3.34-2.07-9.74-5.85-20.95-11.2-32.44C35.71,16.61,16.07-4.06,5.92.67-4.22,5.4-1.02,33.72,13.07,63.95c6.14,13.15,13.32,24.49,20.32,32.72-11.56,12.08-18.68,28.44-18.68,46.48,0,33.12,23.97,60.63,55.5,66.17l-18.25,8.15c-5.18,2.31-7.5,8.38-5.2,13.57,2.32,5.18,8.39,7.51,13.57,5.2l4.04-1.81c-1.16,5.1-1.82,10.63-1.82,16.42,0,1.79.07,3.56.2,5.3h-2.18c-3.26,0-5.91,2.64-5.91,5.91s2.65,5.91,5.91,5.91h46.28c3.25,0,5.91-2.66,5.91-5.91,0-.72-.14-1.4-.38-2.04h.88c2.25,1.9,5.16,3.05,8.33,3.05,7.15,0,12.93-5.79,12.93-12.94s-5.79-12.93-12.93-12.93c-2.63,0-5.07.79-7.11,2.14-2.21-14.37-8.5-25.93-16.62-30.9,29.43-7.16,51.28-33.67,51.28-65.29,0-18.32-7.34-34.92-19.23-47.05,3.84-4.59,7.74-10.11,11.48-16.35,24,14.68,46.16,20.13,51.85,12,6.41-9.16-10.52-32.1-37.82-51.22Zm-33.83,203.36c3.46,0,6.25,2.8,6.25,6.25s-2.79,6.26-6.25,6.26-6.19-2.75-6.24-6.14v-.2c.04-3.41,2.82-6.17,6.24-6.17Zm-39.67-68.24c-17.95,0-32.49-14.56-32.49-32.5s14.54-32.49,32.49-32.49,32.5,14.55,32.5,32.49-14.56,32.5-32.5,32.5Z"/>
  
</svg>