<svg width="283" height="542" viewBox="0 0 283 542" fill="none" xmlns="http://www.w3.org/2000/svg">
<path fill-rule="evenodd" clip-rule="evenodd" d="M282.029 168.206V76.0149L221.935 110.724C214.859 128.017 209.643 144.684 206.408 159.671C193.652 155.707 180.086 153.583 166.056 153.583C151.278 153.583 137.066 155.97 123.763 160.338C119.578 140.638 111.936 117.965 101.121 94.7257C72.6355 33.6032 32.9303 -8.20359 12.4105 1.36323C-8.0891 10.9301 -1.6198 68.2096 26.8653 129.352C39.2783 155.949 53.7937 178.885 67.9453 195.531C44.575 219.964 30.1808 253.054 30.1808 289.541C30.1808 356.529 78.6399 412.17 142.383 423.375L105.487 439.859C95.0153 444.532 90.325 456.809 94.9748 467.306C99.6651 477.783 111.937 482.496 122.409 477.823L130.576 474.162C128.231 484.478 126.897 495.663 126.897 507.373C126.897 510.994 127.038 514.574 127.301 518.093H122.894C116.303 518.093 110.946 523.433 110.946 530.047C110.946 536.66 116.303 542 122.894 542H216.456C223.026 542 228.404 536.62 228.404 530.047C228.404 528.59 228.121 527.215 227.636 525.92H229.415C233.964 529.763 239.847 532.089 246.255 532.089C260.71 532.089 272.395 520.379 272.395 505.917C272.395 491.456 260.69 479.765 246.255 479.765C240.938 479.765 236.005 481.363 231.881 484.093C227.413 455.029 214.697 431.648 198.281 421.596C233.617 412.995 263.547 390.59 282.029 360.415V218.677C276.635 209.868 270.267 201.718 263.075 194.378C269.393 186.824 275.79 178.023 282.029 168.206ZM258.891 505.917C258.891 498.939 253.25 493.276 246.255 493.276C239.341 493.276 233.721 498.858 233.64 505.755V506.16C233.741 513.016 239.26 518.578 246.255 518.578C253.25 518.578 258.891 512.895 258.891 505.917ZM100.373 289.521C100.373 325.806 129.767 355.255 166.056 355.255C202.325 355.255 231.76 325.806 231.76 289.521C231.76 253.236 202.345 223.807 166.056 223.807C129.767 223.807 100.373 253.236 100.373 289.521Z" fill="#F7F7F7"/>
</svg>
